<svg width="179" height="58" viewBox="0 0 179 58" fill="none" xmlns="http://www.w3.org/2000/svg">
<path d="M66.4043 17.5075V21.0457H70.4533H74.5024V32.0649V43.084H78.2478H81.9931L82.0336 32.1053L82.0944 21.1468L86.1029 21.0862L90.0912 21.0457V17.5075V13.9692H78.2478H66.4043V17.5075Z" fill="white"/>
<path d="M99.4062 28.5303V43.0879H103.152H106.897V28.5303V13.9727H103.152H99.4062V28.5303Z" fill="white"/>
<path d="M126.782 15.024C125.486 18.5017 116.74 42.4409 116.659 42.724C116.578 43.0677 116.862 43.0879 120.405 43.0879H124.231L125.041 40.4999L125.831 37.9321H130.467H135.103L135.953 40.4594L136.803 42.9868L140.569 43.0475C142.654 43.0677 144.355 43.0272 144.355 42.9464C144.355 42.8453 142.047 36.3146 139.213 28.4292L134.091 14.0738L130.649 14.0131L127.187 13.9727L126.782 15.024ZM133.22 31.1992C133.22 31.3003 132.005 31.3609 130.507 31.3609H127.774L129.09 27.4587C129.799 25.3357 130.446 23.4351 130.507 23.2734C130.588 23.0307 133.22 30.6735 133.22 31.1992Z" fill="white"/>
<path d="M154.062 28.5103V43.0879H157.807H161.552V38.3365V33.5649L163.01 33.6256L164.447 33.6862L166.937 38.3365L169.407 42.9868L173.699 43.0475L178.012 43.0879L177.708 42.6431C177.323 42.0163 171.877 32.7157 171.817 32.554C171.796 32.4731 172.363 32.0283 173.092 31.5228C174.691 30.431 175.947 28.672 176.554 26.6906C177.182 24.6283 177.04 21.4742 176.271 19.7556C175.036 17.0867 173.214 15.449 170.48 14.5392C169.225 14.1348 168.679 14.0944 161.613 14.0135L154.062 13.9326V28.5103ZM168.193 21.3529C169.569 22.5053 169.772 24.6889 168.618 26.0031C167.808 26.913 167.018 27.1152 164.042 27.1152H161.552V23.9813V20.8474H164.569C167.504 20.8474 167.606 20.8676 168.193 21.3529Z" fill="white"/>
<path d="M17.6816 35.0476C17.6816 38.8495 20.7677 41.9316 24.5744 41.9316C28.3813 41.9316 31.4676 38.8495 31.4676 35.0476C31.4676 31.2458 28.3813 28.1641 24.5744 28.1641C20.7677 28.1641 17.6816 31.2458 17.6816 35.0476Z" fill="url(#paint0_linear_20_2)"/>
<path d="M19.4996 7.40429C18.0222 9.60393 15.8663 11.2403 13.8012 12.9024C10.3087 15.7126 6.93639 18.7442 4.34862 22.4021C1.76063 26.0601 -0.0131105 30.4125 7.29976e-05 34.8912C0.0157144 40.147 2.51388 45.1992 6.13599 49.0118C11.6744 54.8411 19.9382 57.9724 27.9547 57.2788C35.9712 56.5853 43.5727 52.0816 48.0247 45.388C49.4293 43.2763 50.511 40.9606 51.2564 38.5398C52.8742 33.2863 52.908 27.5374 51.2185 22.3019C51.1577 24.5252 49.7832 26.7148 47.7188 27.5492C46.192 28.1664 44.3427 27.9705 43.0029 27.0092C38.4488 23.7408 43.2476 17.4733 41.0406 13.2664C39.16 9.68248 33.86 9.83088 30.7762 7.2068C28.9799 5.67863 28.078 3.1697 28.491 0.849549C26.2049 4.00943 25.657 8.20051 26.3995 12.0278C27.1422 15.8552 29.0655 19.3634 31.3449 22.528C33.6102 25.6731 36.3495 28.7714 36.8549 32.6126C37.2008 35.2398 36.4169 37.9342 35.0278 40.1916C33.0762 43.3622 29.8527 45.7899 26.1979 46.5174C21.7958 47.3937 17.0104 45.6699 14.057 42.2944C11.1033 38.9187 10.026 34.0457 11.1203 29.6984C12.5114 24.1717 16.9237 20.0197 20.207 15.3591C21.872 12.9961 23.3009 10.3618 23.6176 7.48976C23.8625 5.27138 23.1901 0.860039 20.6917 -1.44768e-06C21.1062 2.74637 21.1473 4.95136 19.4996 7.40429" fill="url(#paint1_linear_20_2)"/>
<defs>
<linearGradient id="paint0_linear_20_2" x1="24.5746" y1="51.2254" x2="24.5746" y2="32.6757" gradientUnits="userSpaceOnUse">
<stop stop-color="#E00A14"/>
<stop offset="0.999999" stop-color="#F97F4E"/>
<stop offset="1" stop-color="#F97F4E"/>
</linearGradient>
<linearGradient id="paint1_linear_20_2" x1="26.2388" y1="58.517" x2="26.2388" y2="27.8753" gradientUnits="userSpaceOnUse">
<stop stop-color="#E00A14"/>
<stop offset="0.999999" stop-color="#F97F4E"/>
<stop offset="1" stop-color="#F97F4E"/>
</linearGradient>
</defs>
</svg>
